<svg width="400" height="400" viewBox="0 0 400 400" fill="none" xmlns="http://www.w3.org/2000/svg">
<path d="M166.667 233.333H58.3333C55.9722 233.333 53.9931 232.534 52.3958 230.934C50.7986 229.335 50 227.353 50 224.989C50 222.625 50.7986 220.647 52.3958 219.055C53.9931 217.463 55.9722 216.667 58.3333 216.667H166.667V183.333H58.3333C55.9722 183.333 53.9931 182.534 52.3958 180.934C50.7986 179.335 50 177.353 50 174.989C50 172.624 50.7986 170.646 52.3958 169.055C53.9931 167.463 55.9722 166.667 58.3333 166.667H166.667V58.3333C166.667 55.9722 167.466 53.9931 169.066 52.3958C170.665 50.7986 172.647 50 175.011 50C177.375 50 179.353 50.7986 180.945 52.3958C182.537 53.9931 183.333 55.9722 183.333 58.3333V166.667H216.667V58.3333C216.667 55.9722 217.466 53.9931 219.066 52.3958C220.665 50.7986 222.647 50 225.011 50C227.376 50 229.354 50.7986 230.945 52.3958C232.537 53.9931 233.333 55.9722 233.333 58.3333V166.667H341.667C344.028 166.667 346.007 167.466 347.604 169.066C349.201 170.665 350 172.647 350 175.011C350 177.375 349.201 179.353 347.604 180.945C346.007 182.537 344.028 183.333 341.667 183.333H233.333V216.667H341.667C344.028 216.667 346.007 217.466 347.604 219.066C349.201 220.665 350 222.647 350 225.011C350 227.376 349.201 229.354 347.604 230.945C346.007 232.537 344.028 233.333 341.667 233.333H233.333V341.667C233.333 344.028 232.534 346.007 230.934 347.604C229.335 349.201 227.353 350 224.989 350C222.625 350 220.647 349.201 219.055 347.604C217.463 346.007 216.667 344.028 216.667 341.667V233.333H183.333V341.667C183.333 344.028 182.534 346.007 180.934 347.604C179.335 349.201 177.353 350 174.989 350C172.624 350 170.646 349.201 169.055 347.604C167.463 346.007 166.667 344.028 166.667 341.667V233.333ZM183.333 216.667H216.667V183.333H183.333V216.667Z" fill="white"/>
</svg>
